<svg width="7856" height="1941" viewBox="0 0 7856 1941" fill="none" xmlns="http://www.w3.org/2000/svg">
<path d="M400.48 604.32C401.76 605.6 403.68 605.6 404.96 604.32L409.44 599.84C410.72 598.56 410.72 596.64 409.44 595.36L394.72 580.64C393.44 579.36 391.52 579.36 390.24 580.64L385.76 585.12C384.48 586.4 384.48 588.32 385.76 589.6L388.96 592.8L384.48 597.92C378.08 593.44 370.4 590.24 362.08 589.6V583.2H372.32C373.6 583.2 374.24 581.92 373.6 580.64L369.12 576.8H372.32C374.24 576.8 375.52 575.52 375.52 573.6V567.2C375.52 565.28 374.24 564 372.32 564H340.32C339.04 564 337.12 565.28 337.12 567.2V573.6C337.12 575.52 339.04 576.8 340.32 576.8H343.52L338.4 580.64C337.76 581.92 339.04 583.2 339.68 583.2H349.92V590.24C341.6 590.88 333.92 594.08 327.52 598.56L323.04 593.44L326.24 590.24C327.52 588.96 327.52 587.04 326.24 585.76L321.76 580.64C320.48 579.36 318.56 579.36 317.28 580.64L302.56 595.36C301.28 596.64 301.28 598.56 302.56 599.84L307.04 604.32C308.32 605.6 310.24 605.6 311.52 604.32L314.08 602.4L317.92 606.88C310.24 615.84 305.12 628 305.12 640.8C305.12 668.96 328.16 692 356.32 692C384.48 692 407.52 668.96 407.52 640.8C407.52 628 402.4 615.84 394.72 606.88L398.56 602.4L400.48 604.32ZM356.32 653.6C349.28 653.6 343.52 647.84 343.52 640.8C343.52 635.68 346.08 631.84 349.92 629.28V608.8C349.92 604.96 353.12 602.4 356.32 602.4C359.52 602.4 362.72 604.96 362.72 608.8V629.92C366.56 631.84 369.12 636.32 369.12 640.8C369.12 647.84 363.36 653.6 356.32 653.6Z" fill="#E91E63"/>
<path d="M618.88 649.12L625.28 655.52C627.84 658.08 627.84 661.92 625.28 664.48C622.72 667.04 618.88 667.04 616.32 664.48L609.92 658.08L599.68 668.32L606.08 674.72C608.64 677.28 608.64 681.12 606.08 683.68C603.52 686.24 599.68 686.24 597.12 683.68L590.72 677.28L580.48 687.52L586.88 693.92C589.44 696.48 589.44 700.32 586.88 702.88C584.32 705.44 580.48 705.44 577.92 702.88L571.52 696.48L561.28 706.72L567.68 713.12C570.24 715.68 570.24 719.52 567.68 722.08C565.12 724.64 561.28 724.64 558.72 722.08L552.32 715.68L542.08 725.92L548.48 732.32C551.04 734.88 551.04 738.72 548.48 741.28C545.92 743.84 542.08 743.84 539.52 741.28L533.12 734.88L512 756H640V628L618.88 649.12ZM614.4 730.4H574.08L614.4 690.08V730.4Z" fill="#E91E63"/>
<g clip-path="url(#clip0)">
<path d="M499.2 173.8H492.8V167.4C492.8 163.56 490.24 161 486.4 161C482.56 161 480 163.56 480 167.4V173.8H416V167.4C416 163.56 413.44 161 409.6 161C405.76 161 403.2 163.56 403.2 167.4V173.8H390.4C387.2 173.8 384 176.36 384 180.2V269.8C384 273.64 387.2 276.2 390.4 276.2H429.44C424.96 268.52 422.4 259.56 422.4 250.6C422.4 222.44 445.44 199.4 473.6 199.4C485.76 199.4 496.64 203.88 505.6 210.92V180.2C505.6 177 502.4 173.8 499.2 173.8Z" fill="#E91E63"/>
<path d="M473.6 212.2C452.48 212.2 435.2 229.48 435.2 250.6C435.2 271.72 452.48 289 473.6 289C494.72 289 512 271.72 512 250.6C512 229.48 494.72 212.2 473.6 212.2ZM486.4 257H473.6C469.76 257 467.2 254.44 467.2 250.6V231.4C467.2 227.56 469.76 225 473.6 225C477.44 225 480 227.56 480 231.4V244.2H486.4C490.24 244.2 492.8 246.76 492.8 250.6C492.8 254.44 490.24 257 486.4 257Z" fill="#E91E63"/>
</g>
<path d="M532.48 428.461C488.32 414.381 448 447.021 448 489.261C448 495.021 448.64 505.901 450.56 512.301C450.56 513.581 451.84 514.861 453.12 514.861H570.24C571.52 514.861 572.8 513.581 573.44 512.301C574.72 505.901 576 495.021 576 489.261C576 461.741 558.72 436.781 532.48 428.461ZM512 438.061C515.84 438.061 518.4 440.621 518.4 444.461C518.4 448.301 515.84 450.861 512 450.861C508.16 450.861 505.6 448.301 505.6 444.461C505.6 440.621 508.16 438.061 512 438.061ZM467.2 495.661C463.36 495.661 460.8 493.101 460.8 489.261C460.8 485.421 463.36 482.861 467.2 482.861C471.04 482.861 473.6 485.421 473.6 489.261C473.6 493.101 471.04 495.661 467.2 495.661ZM485.12 462.381C482.56 464.941 478.72 464.941 476.16 462.381C473.6 459.821 473.6 455.341 475.52 452.781C478.08 450.221 481.92 450.221 484.48 452.781C487.04 455.341 487.04 459.821 485.12 462.381ZM512 502.061C504.96 502.061 498.56 495.661 500.48 489.261C502.4 482.861 512 463.661 512 463.661C512 463.661 521.6 482.861 523.52 489.261C525.44 495.661 519.04 502.061 512 502.061ZM548.48 462.381C545.92 464.941 542.08 464.941 539.52 462.381C536.96 459.821 536.96 455.981 539.52 453.421C542.08 450.861 545.92 450.861 548.48 453.421C550.4 455.341 550.4 459.821 548.48 462.381ZM556.8 495.661C552.96 495.661 550.4 493.101 550.4 489.261C550.4 485.421 552.96 482.861 556.8 482.861C560.64 482.861 563.2 485.421 563.2 489.261C563.2 493.101 560.64 495.661 556.8 495.661Z" fill="#E91E63"/>
<g clip-path="url(#clip1)">
<path d="M1346.5 1542L1029 1329.5L627.5 1803.5L1346.5 1542Z" fill="#E91E63"/>
<path d="M1475.15 1524.64L957.551 1135.48L852.482 846.805L876.539 838.049C890.972 832.795 897.092 819.671 891.839 805.237L874.327 757.125C869.074 742.691 855.949 736.571 841.516 741.824L504.73 864.404C490.296 869.658 484.176 882.783 489.429 897.216L506.941 945.328C512.194 959.762 525.319 965.882 539.753 960.629L563.809 951.873L668.877 1240.55L522.524 1871.37C520.348 1910.3 556.662 1935.22 590.341 1922.96L1456.36 1607.76C1490.04 1595.5 1501.84 1553.06 1475.15 1524.64ZM637.109 1796.97L1029.35 1332.74L1339.55 1541.3L637.109 1796.97Z" fill="#3F51B5"/>
</g>
<path d="M128 76.8V51.2L112.64 47.36C112 45.44 111.36 43.52 110.08 41.6L118.4 27.52L100.48 9.6L86.4 17.92C84.48 17.28 82.56 16 80.64 15.36L76.8 0H51.2L47.36 15.36C45.44 16.64 43.52 17.28 41.6 17.92L27.52 9.6L9.6 27.52L17.92 41.6C17.28 43.52 16 45.44 15.36 47.36L0 51.2V76.8L15.36 80.64C16 82.56 16.64 84.48 17.92 86.4L9.6 100.48L27.52 118.4L41.6 110.08C43.52 110.72 45.44 112 47.36 112.64L51.2 128H76.8L80.64 112.64C82.56 112 84.48 111.36 86.4 110.08L100.48 118.4L118.4 100.48L110.08 86.4C110.72 84.48 112 82.56 112.64 80.64L128 76.8ZM64 83.2C53.12 83.2 44.8 74.88 44.8 64C44.8 53.12 53.12 44.8 64 44.8C74.88 44.8 83.2 53.12 83.2 64C83.2 74.88 74.88 83.2 64 83.2Z" fill="#E91E63"/>
<path d="M335.998 361.091L345.597 335.494C346.237 333.574 344.957 331.014 342.398 331.014C312.961 330.374 320.64 352.132 298.882 338.053C296.323 336.133 293.123 339.333 294.403 341.893L303.362 361.091C283.524 373.249 268.806 404.606 268.806 427.003C268.806 455.16 291.843 459 320 459C348.157 459 371.194 455.16 371.194 427.003C371.194 403.966 356.476 372.609 335.998 361.091ZM320 401.406C322.56 401.406 324.48 402.046 326.399 402.686C334.079 405.246 339.198 412.285 339.198 420.604C339.198 428.923 334.079 435.962 326.399 438.522V446.201H313.601V438.522C305.922 435.962 300.802 428.923 300.802 420.604H313.601C313.601 424.444 316.8 427.003 320 427.003C323.84 427.003 326.399 424.444 326.399 420.604C326.399 417.405 323.84 414.205 320 414.205C318.08 414.205 315.521 413.565 313.601 412.925C305.922 410.365 300.802 403.326 300.802 395.007C300.802 386.688 305.922 379.649 313.601 377.089V369.41H326.399V377.089C334.079 379.649 339.198 386.688 339.198 395.007H326.399C326.399 391.807 323.84 388.608 320 388.608C316.8 388.608 313.601 391.807 313.601 395.007C313.601 398.847 316.8 401.406 320 401.406Z" fill="#E91E63"/>
<g clip-path="url(#clip2)">
<path d="M288 97H198.4C194.56 97 192 100.2 192 103.4V193C192 196.84 194.56 199.4 198.4 199.4H204.8V116.2C204.8 112.36 207.36 109.8 211.2 109.8H294.4V103.4C294.4 99.56 291.84 97 288 97Z" fill="#E91E63"/>
<path d="M313.6 122.6H224C220.16 122.6 217.6 125.16 217.6 129V218.6C217.6 222.44 220.16 225 224 225H313.6C317.44 225 320 222.44 320 218.6V129C320 125.16 317.44 122.6 313.6 122.6ZM275.2 205.8H236.8C232.96 205.8 230.4 203.24 230.4 199.4C230.4 195.56 232.96 193 236.8 193H275.2C279.04 193 281.6 195.56 281.6 199.4C281.6 203.24 279.04 205.8 275.2 205.8ZM300.8 180.2H236.8C232.96 180.2 230.4 177.64 230.4 173.8C230.4 169.96 232.96 167.4 236.8 167.4H300.8C304.64 167.4 307.2 169.96 307.2 173.8C307.2 177.64 304.64 180.2 300.8 180.2ZM300.8 154.6H236.8C232.96 154.6 230.4 152.04 230.4 148.2C230.4 144.36 232.96 141.8 236.8 141.8H300.8C304.64 141.8 307.2 144.36 307.2 148.2C307.2 152.04 304.64 154.6 300.8 154.6Z" fill="#E91E63"/>
</g>
<path d="M185.6 256H70.4C66.56 256 64 258.56 64 262.4V377.6C64 381.44 66.56 384 70.4 384H185.6C189.44 384 192 381.44 192 377.6V262.4C192 258.56 189.44 256 185.6 256ZM170.88 280.96C173.44 283.52 173.44 287.36 170.88 289.92L152.96 307.84C150.4 310.4 146.56 310.4 144 307.84C141.44 305.28 141.44 301.44 144 298.88L161.92 280.96C164.48 278.4 168.32 278.4 170.88 280.96ZM108.8 358.4H83.2C79.36 358.4 76.8 355.84 76.8 352C76.8 348.16 79.36 345.6 83.2 345.6H108.8C112.64 345.6 115.2 348.16 115.2 352C115.2 355.84 112.64 358.4 108.8 358.4ZM108.8 300.8H102.4V307.2C102.4 311.04 99.84 313.6 96 313.6C92.16 313.6 89.6 311.04 89.6 307.2V300.8H83.2C79.36 300.8 76.8 298.24 76.8 294.4C76.8 290.56 79.36 288 83.2 288H89.6V281.6C89.6 277.76 92.16 275.2 96 275.2C99.84 275.2 102.4 277.76 102.4 281.6V288H108.8C112.64 288 115.2 290.56 115.2 294.4C115.2 298.24 112.64 300.8 108.8 300.8ZM134.4 281.6C134.4 277.76 136.96 275.2 140.8 275.2C144.64 275.2 147.2 277.76 147.2 281.6C147.2 285.44 144.64 288 140.8 288C136.96 288 134.4 285.44 134.4 281.6ZM172.8 371.2H147.2C143.36 371.2 140.8 368.64 140.8 364.8C140.8 360.96 143.36 358.4 147.2 358.4H172.8C176.64 358.4 179.2 360.96 179.2 364.8C179.2 368.64 176.64 371.2 172.8 371.2ZM172.8 345.6H147.2C143.36 345.6 140.8 343.04 140.8 339.2C140.8 335.36 143.36 332.8 147.2 332.8H172.8C176.64 332.8 179.2 335.36 179.2 339.2C179.2 343.04 176.64 345.6 172.8 345.6ZM172.8 313.6C168.96 313.6 166.4 311.04 166.4 307.2C166.4 303.36 168.96 300.8 172.8 300.8C176.64 300.8 179.2 303.36 179.2 307.2C179.2 311.04 176.64 313.6 172.8 313.6Z" fill="#E91E63"/>
<path d="M2447 950V1423C2447 1477 2434.83 1524.33 2410.5 1565C2386.5 1605.67 2351.67 1636.83 2306 1658.5C2260.33 1680.17 2206.33 1691 2144 1691C2050 1691 1977 1667 1925 1619C1873 1570.67 1847 1504.67 1847 1421V950H2001.5V1397.5C2001.5 1453.83 2012.83 1495.17 2035.5 1521.5C2058.17 1547.83 2095.67 1561 2148 1561C2198.67 1561 2235.33 1547.83 2258 1521.5C2281 1494.83 2292.5 1453.17 2292.5 1396.5V950H2447ZM2849.5 1569.5C2876.17 1569.5 2908.17 1563.67 2945.5 1552V1665.5C2907.5 1682.5 2860.83 1691 2805.5 1691C2744.5 1691 2700 1675.67 2672 1645C2644.33 1614 2630.5 1567.67 2630.5 1506V1236.5H2557.5V1172L2641.5 1121L2685.5 1003H2783V1122H2939.5V1236.5H2783V1506C2783 1527.67 2789 1543.67 2801 1554C2813.33 1564.33 2829.5 1569.5 2849.5 1569.5ZM3052.5 977.5C3052.5 927.833 3080.17 903 3135.5 903C3190.83 903 3218.5 927.833 3218.5 977.5C3218.5 1001.17 3211.5 1019.67 3197.5 1033C3183.83 1046 3163.17 1052.5 3135.5 1052.5C3080.17 1052.5 3052.5 1027.5 3052.5 977.5ZM3211.5 1681H3059V1122H3211.5V1681ZM3524.5 1681H3372V903H3524.5V1681ZM3678.5 977.5C3678.5 927.833 3706.17 903 3761.5 903C3816.83 903 3844.5 927.833 3844.5 977.5C3844.5 1001.17 3837.5 1019.67 3823.5 1033C3809.83 1046 3789.17 1052.5 3761.5 1052.5C3706.17 1052.5 3678.5 1027.5 3678.5 977.5ZM3837.5 1681H3685V1122H3837.5V1681ZM4233.5 1569.5C4260.17 1569.5 4292.17 1563.67 4329.5 1552V1665.5C4291.5 1682.5 4244.83 1691 4189.5 1691C4128.5 1691 4084 1675.67 4056 1645C4028.33 1614 4014.5 1567.67 4014.5 1506V1236.5H3941.5V1172L4025.5 1121L4069.5 1003H4167V1122H4323.5V1236.5H4167V1506C4167 1527.67 4173 1543.67 4185 1554C4197.33 1564.33 4213.5 1569.5 4233.5 1569.5ZM4363 1122H4530L4635.5 1436.5C4644.5 1463.83 4650.67 1496.17 4654 1533.5H4657C4660.67 1499.17 4667.83 1466.83 4678.5 1436.5L4782 1122H4945.5L4709 1752.5C4687.33 1810.83 4656.33 1854.5 4616 1883.5C4576 1912.5 4529.17 1927 4475.5 1927C4449.17 1927 4423.33 1924.17 4398 1918.5V1797.5C4416.33 1801.83 4436.33 1804 4458 1804C4485 1804 4508.5 1795.67 4528.5 1779C4548.83 1762.67 4564.67 1737.83 4576 1704.5L4585 1677L4363 1122ZM4999 1439V1314H5267.5V1439H4999ZM5636.5 1569.5C5663.17 1569.5 5695.17 1563.67 5732.5 1552V1665.5C5694.5 1682.5 5647.83 1691 5592.5 1691C5531.5 1691 5487 1675.67 5459 1645C5431.33 1614 5417.5 1567.67 5417.5 1506V1236.5H5344.5V1172L5428.5 1121L5472.5 1003H5570V1122H5726.5V1236.5H5570V1506C5570 1527.67 5576 1543.67 5588 1554C5600.33 1564.33 5616.5 1569.5 5636.5 1569.5ZM5967.5 1400.5C5967.5 1455.83 5976.5 1497.67 5994.5 1526C6012.83 1554.33 6042.5 1568.5 6083.5 1568.5C6124.17 1568.5 6153.33 1554.5 6171 1526.5C6189 1498.17 6198 1456.17 6198 1400.5C6198 1345.17 6189 1303.67 6171 1276C6153 1248.33 6123.5 1234.5 6082.5 1234.5C6041.83 1234.5 6012.5 1248.33 5994.5 1276C5976.5 1303.33 5967.5 1344.83 5967.5 1400.5ZM6354 1400.5C6354 1491.5 6330 1562.67 6282 1614C6234 1665.33 6167.17 1691 6081.5 1691C6027.83 1691 5980.5 1679.33 5939.5 1656C5898.5 1632.33 5867 1598.5 5845 1554.5C5823 1510.5 5812 1459.17 5812 1400.5C5812 1309.17 5835.83 1238.17 5883.5 1187.5C5931.17 1136.83 5998.17 1111.5 6084.5 1111.5C6138.17 1111.5 6185.5 1123.17 6226.5 1146.5C6267.5 1169.83 6299 1203.33 6321 1247C6343 1290.67 6354 1341.83 6354 1400.5ZM6601.5 1400.5C6601.5 1455.83 6610.5 1497.67 6628.5 1526C6646.83 1554.33 6676.5 1568.5 6717.5 1568.5C6758.17 1568.5 6787.33 1554.5 6805 1526.5C6823 1498.17 6832 1456.17 6832 1400.5C6832 1345.17 6823 1303.67 6805 1276C6787 1248.33 6757.5 1234.5 6716.5 1234.5C6675.83 1234.5 6646.5 1248.33 6628.5 1276C6610.5 1303.33 6601.5 1344.83 6601.5 1400.5ZM6988 1400.5C6988 1491.5 6964 1562.67 6916 1614C6868 1665.33 6801.17 1691 6715.5 1691C6661.83 1691 6614.5 1679.33 6573.5 1656C6532.5 1632.33 6501 1598.5 6479 1554.5C6457 1510.5 6446 1459.17 6446 1400.5C6446 1309.17 6469.83 1238.17 6517.5 1187.5C6565.17 1136.83 6632.17 1111.5 6718.5 1111.5C6772.17 1111.5 6819.5 1123.17 6860.5 1146.5C6901.5 1169.83 6933 1203.33 6955 1247C6977 1290.67 6988 1341.83 6988 1400.5ZM7266.5 1681H7114V903H7266.5V1681ZM7817 1515C7817 1572.33 7797 1616 7757 1646C7717.33 1676 7657.83 1691 7578.5 1691C7537.83 1691 7503.17 1688.17 7474.5 1682.5C7445.83 1677.17 7419 1669.17 7394 1658.5V1532.5C7422.33 1545.83 7454.17 1557 7489.5 1566C7525.17 1575 7556.5 1579.5 7583.5 1579.5C7638.83 1579.5 7666.5 1563.5 7666.5 1531.5C7666.5 1519.5 7662.83 1509.83 7655.5 1502.5C7648.17 1494.83 7635.5 1486.33 7617.5 1477C7599.5 1467.33 7575.5 1456.17 7545.5 1443.5C7502.5 1425.5 7470.83 1408.83 7450.5 1393.5C7430.5 1378.17 7415.83 1360.67 7406.5 1341C7397.5 1321 7393 1296.5 7393 1267.5C7393 1217.83 7412.17 1179.5 7450.5 1152.5C7489.17 1125.17 7543.83 1111.5 7614.5 1111.5C7681.83 1111.5 7747.33 1126.17 7811 1155.5L7765 1265.5C7737 1253.5 7710.83 1243.67 7686.5 1236C7662.17 1228.33 7637.33 1224.5 7612 1224.5C7567 1224.5 7544.5 1236.67 7544.5 1261C7544.5 1274.67 7551.67 1286.5 7566 1296.5C7580.67 1306.5 7612.5 1321.33 7661.5 1341C7705.17 1358.67 7737.17 1375.17 7757.5 1390.5C7777.83 1405.83 7792.83 1423.5 7802.5 1443.5C7812.17 1463.5 7817 1487.33 7817 1515Z" fill="#3F51B5"/>
<defs>
<clipPath id="clip0">
<rect width="128" height="128" fill="white" transform="translate(384 161)"/>
</clipPath>
<clipPath id="clip1">
<rect width="1024" height="1024" fill="white" transform="translate(192 978.229) rotate(-20)"/>
</clipPath>
<clipPath id="clip2">
<rect width="128" height="128" fill="white" transform="translate(192 97)"/>
</clipPath>
</defs>
</svg>
